<svg width="693.500000" height="385.192871" viewBox="0 0 693.5 385.193" fill="none" xmlns="http://www.w3.org/2000/svg" xmlns:xlink="http://www.w3.org/1999/xlink">
	<desc>
			Created with Pixso.
	</desc>
	<defs/>
	<path id="Vector" d="M197.51 293.04C235.06 262.66 315.28 207.79 415.01 214.31C444.5 216.22 515.3 220.88 534.22 265.79C543.72 288.38 536.5 312.56 530.58 326.9C539.67 323.78 549.73 321.08 560.82 319.26C610.61 311.16 652.87 325.65 677.18 336.87L108.17 336.87C68.43 338.18 40.76 283.02 119.16 262.01C149.53 253.86 186.33 262.57 197.51 293.04L197.51 293.04Z" stroke="#2D2D34" stroke-opacity="1.000000" stroke-width="2.000000" stroke-linejoin="round"/>
	<path id="Vector" d="M352.12 111.04C352.12 111.04 371.08 109.54 370.9 99.85C370.66 90.17 363.95 89.51 363.95 89.51C363.95 89.51 384.82 62.73 369.87 43.96C354.92 25.18 336.84 27.88 336.84 27.88C336.84 27.88 339.41 7.06 323.99 1.98C308.61 -3.09 297.76 6.64 297.76 6.64C297.76 6.64 276.89 -10.87 255.37 14.42C246.24 26.86 243.4 36.97 233.99 35.85C224.58 34.73 209.11 36.83 221.88 54.53C234.69 72.23 249.03 65.66 256.77 65.52C264.5 65.38 325.9 100.51 325.9 100.51L352.12 111.04Z" fill="#2D2D34" fill-opacity="1.000000" fill-rule="nonzero"/>
	<path id="Vector" d="M370.9 99.85C370.66 90.17 363.95 89.51 363.95 89.51C363.95 89.51 384.82 62.73 369.87 43.96C354.92 25.18 336.84 27.88 336.84 27.88C336.84 27.88 339.41 7.06 323.99 1.98C308.61 -3.09 297.76 6.64 297.76 6.64C297.76 6.64 276.89 -10.87 255.37 14.42C246.24 26.86 243.4 36.97 233.99 35.85C224.58 34.73 209.11 36.83 221.88 54.53C234.69 72.23 249.03 65.66 256.77 65.52C264.5 65.38 325.9 100.51 325.9 100.51L352.12 111.04C352.12 111.04 371.08 109.54 370.9 99.85L370.9 99.85Z" stroke="#2D2D34" stroke-opacity="1.000000" stroke-width="1.000000" stroke-linejoin="round"/>
	<path id="Vector" d="M447.25 221.3C447.25 218.36 429.13 144.95 383.15 136.1C337.17 127.25 293.75 138.61 282.34 160.13C270.93 181.66 264.22 336.31 264.22 336.31L467.04 336.31L447.25 221.3Z" fill="#74A3FF" fill-opacity="1.000000" fill-rule="nonzero"/>
	<path id="Vector" d="M383.15 136.1C337.17 127.25 293.75 138.61 282.34 160.13C270.93 181.66 264.22 336.31 264.22 336.31L467.04 336.31L447.25 221.3C447.25 218.36 429.13 144.95 383.15 136.1L383.15 136.1Z" stroke="#2D2D34" stroke-opacity="1.000000" stroke-width="2.000000" stroke-linejoin="round"/>
	<path id="Vector" d="M67.36 383.69C59.07 383.69 52.36 373.11 52.36 360.02C52.36 346.93 59.07 336.36 67.36 336.36L677 336.36C685.29 336.36 692 346.93 692 360.02C692 373.07 685.29 383.69 677 383.69L67.36 383.69Z" stroke="#2D2D34" stroke-opacity="1.000000" stroke-width="3.000000" stroke-linejoin="round"/>
	<path id="Vector" d="M345.18 297.42C345.18 297.42 315.65 308.78 307.87 317.26C308.8 320.43 309.78 320.43 309.78 320.43L359.67 318.84L345.18 297.42Z" fill="#FBFBFB" fill-opacity="1.000000" fill-rule="nonzero"/>
	<path id="Vector" d="M307.87 317.26C308.8 320.43 309.78 320.43 309.78 320.43L359.67 318.84L345.18 297.42C345.18 297.42 315.65 308.78 307.87 317.26L307.87 317.26Z" stroke="#2D2D34" stroke-opacity="1.000000" stroke-width="2.000000" stroke-linejoin="round"/>
	<path id="Vector" d="M446.78 285.4C446.78 285.4 372.57 271.47 333.77 298.91C364.56 335.61 364.56 335.61 364.56 335.61L496.58 335.61C496.58 335.61 531.14 323.36 515.12 291.73C499.09 260.1 461.69 181.94 447.62 165.63C433.55 149.33 416.13 142.57 394.19 139.5M446.58 286.36L446.6 286.38C447.15 286.48 447.66 286.13 447.76 285.58C447.87 285.03 447.52 284.52 446.96 284.41L446.94 284.43L446.58 286.36ZM394.34 138.53L394.33 138.51C393.77 138.43 393.27 138.81 393.2 139.36C393.12 139.91 393.49 140.41 394.05 140.49L394.07 140.47L394.34 138.53Z" fill="#74A3FF" fill-opacity="1.000000" fill-rule="nonzero"/>
	<path id="Vector" d="M446.78 285.4C446.78 285.4 372.57 271.47 333.77 298.91C364.56 335.61 364.56 335.61 364.56 335.61L496.58 335.61C496.58 335.61 531.14 323.36 515.12 291.73C499.09 260.1 461.69 181.94 447.62 165.63C433.55 149.33 416.13 142.57 394.19 139.5" stroke="#2D2D34" stroke-opacity="1.000000" stroke-width="2.000000" stroke-linejoin="round" stroke-linecap="round"/>
	<path id="Vector" d="M349.7 295.55C349.7 295.55 370.1 309.01 379.75 327.74" stroke="#2D2D34" stroke-opacity="1.000000" stroke-width="3.000000" stroke-linejoin="round" stroke-dasharray="12 12"/>
	<path id="Vector" d="M314.2 318.84L383.8 318.84L383.8 333.61L314.2 333.61L314.2 318.84Z" fill="#FBFBFB" fill-opacity="1.000000" fill-rule="nonzero"/>
	<path id="Vector" d="M314.2 318.84L314.2 333.61L383.8 333.61L383.8 318.84L314.2 318.84Z" stroke="#2D2D34" stroke-opacity="1.000000" stroke-width="2.000000" stroke-linejoin="round"/>
	<path id="Vector" d="M192.11 318.84L314.25 318.84L314.25 333.61L192.11 333.61L192.11 318.84Z" fill="#FBFBFB" fill-opacity="1.000000" fill-rule="nonzero"/>
	<path id="Vector" d="M192.11 318.84L192.11 333.61L314.25 333.61L314.25 318.84L192.11 318.84Z" stroke="#2D2D34" stroke-opacity="1.000000" stroke-width="2.000000" stroke-linejoin="round"/>
	<path id="Vector" d="M297.39 229.73C270.69 315.35 197.14 294.67 176.08 271.33C159.59 253.07 119.02 160.27 119.02 160.27C116.08 152.73 147.85 139.27 153.3 148.16C153.3 148.16 175.25 176.02 189.87 203.83C204.5 231.69 228.4 239.84 243.58 212.26C258.77 184.73 283.83 157.57 284.58 156.64M298.32 230.04L298.34 230.03C298.51 229.49 298.22 228.94 297.68 228.78C297.15 228.61 296.6 228.9 296.43 229.43L296.45 229.46L298.32 230.04ZM285.33 157.27L285.36 157.27C285.71 156.83 285.64 156.21 285.2 155.86C284.76 155.51 284.15 155.58 283.79 156.02L283.8 156.04L285.33 157.27Z" fill="#74A3FF" fill-opacity="1.000000" fill-rule="nonzero"/>
	<path id="Vector" d="M297.39 229.73C270.69 315.35 197.14 294.67 176.08 271.33C159.59 253.07 119.02 160.27 119.02 160.27C116.08 152.73 147.85 139.27 153.3 148.16C153.3 148.16 175.25 176.02 189.87 203.83C204.5 231.69 228.4 239.84 243.58 212.26C258.77 184.73 283.83 157.57 284.58 156.64" stroke="#2D2D34" stroke-opacity="1.000000" stroke-width="2.000000" stroke-linejoin="round" stroke-linecap="round"/>
	<path id="Vector" d="M412.03 246.41C412.03 246.41 415.24 271.14 428.43 283.02" stroke="#2D2D34" stroke-opacity="1.000000" stroke-width="2.000000" stroke-linejoin="round" stroke-linecap="round"/>
	<path id="Vector" d="M302.56 115.88C316.77 135.72 308.66 157.62 310.34 160.79C314.34 168.57 345.14 169.45 365.59 163.3C386.04 157.15 382.68 151.94 375.69 147.28C359.44 136.75 350.82 87.18 350.4 86.11C350.4 86.11 347.88 78.52 345.97 78.1C349.75 70.93 349.98 58.91 337.96 58.07C325.94 57.23 322.78 70.32 322.78 70.32C322.78 70.32 309.27 67.81 305.35 47.96C299.86 64.27 286.39 67.48 274.84 48.66C267.11 36.41 258.96 53.55 256.35 61.42C255.09 65.24 254.02 110.24 291.84 115.27C329.67 120.35 338.1 92.64 338.1 92.64M303.37 115.33L303.37 115.3C303.04 114.84 302.43 114.74 301.98 115.07C301.52 115.39 301.42 116.01 301.75 116.46L301.77 116.47L303.37 115.33ZM339.03 92.94L339.06 92.93C339.22 92.39 338.93 91.84 338.39 91.68C337.86 91.52 337.31 91.81 337.14 92.34L337.16 92.37L339.03 92.94Z" fill="#FBFBFB" fill-opacity="1.000000" fill-rule="nonzero"/>
	<path id="Vector" d="M302.56 115.88C316.77 135.72 308.66 157.62 310.34 160.79C314.34 168.57 345.14 169.45 365.59 163.3C386.04 157.15 382.68 151.94 375.69 147.28C359.44 136.75 350.82 87.18 350.4 86.11C350.4 86.11 347.88 78.52 345.97 78.1C349.75 70.93 349.98 58.91 337.96 58.07C325.94 57.23 322.78 70.32 322.78 70.32C322.78 70.32 309.27 67.81 305.35 47.96C299.86 64.27 286.39 67.48 274.84 48.66C267.11 36.41 258.96 53.55 256.35 61.42C255.09 65.24 254.02 110.24 291.84 115.27C329.67 120.35 338.1 92.64 338.1 92.64" stroke="#2D2D34" stroke-opacity="1.000000" stroke-width="2.000000" stroke-linejoin="round" stroke-linecap="round"/>
	<path id="Vector" d="M323.94 109.87C323.94 109.87 313.5 123.29 305.82 121.14C302.56 115.88 302.56 115.88 302.56 115.88C302.56 115.88 316.76 114.81 323.94 109.87Z" fill="#2D2D34" fill-opacity="1.000000" fill-rule="evenodd"/>
	<path id="Vector" d="M625.15 311.39C625.15 311.39 618.44 298.86 620.77 292.85C623.1 286.84 628.46 288.38 628.18 287.54C627.9 286.7 619.74 270.82 630.92 265.97C642.1 261.17 643.55 253.91 639.36 249.25C635.16 244.59 640.38 228.66 648.35 227.03C656.31 225.4 659.81 223.21 659.39 218.36C658.97 213.57 681.61 193.53 687.1 200.8C692.6 208.07 689.01 215.2 684.22 218.22C679.42 221.25 675.92 232.34 684.64 237.7C693.35 243.05 688.97 274.87 667.82 284.75C646.67 294.62 643.73 311.34 643.73 311.34L625.15 311.34L625.15 311.39Z" fill="#FBFBFB" fill-opacity="1.000000" fill-rule="nonzero"/>
	<path id="Vector" d="M620.77 292.85C623.1 286.84 628.46 288.38 628.18 287.54C627.9 286.7 619.74 270.82 630.92 265.97C642.1 261.17 643.55 253.91 639.36 249.25C635.16 244.59 640.38 228.66 648.35 227.03C656.31 225.4 659.81 223.21 659.39 218.36C658.97 213.57 681.61 193.53 687.1 200.8C692.6 208.07 689.01 215.2 684.22 218.22C679.42 221.25 675.92 232.34 684.64 237.7C693.35 243.05 688.97 274.87 667.82 284.75C646.67 294.62 643.73 311.34 643.73 311.34L625.15 311.34L625.15 311.39C625.15 311.39 618.44 298.86 620.77 292.85L620.77 292.85Z" stroke="#2D2D34" stroke-opacity="1.000000" stroke-width="2.000000" stroke-linejoin="round"/>
	<path id="Vector" d="M635.82 271.61C635.86 271.05 638.42 237.18 632.46 232.11C626.5 227.03 624.08 222.09 628.27 215.24C632.46 208.39 614.9 195.21 609.96 213.75C608.94 219.11 612.15 224.47 605.63 226.66C599.11 228.84 595.89 234.34 601.44 237.09C606.93 239.84 607.4 243.52 604.93 246.27C602.46 249.02 595.19 264.53 604.65 269.05C614.11 273.56 616.25 313.77 616.25 313.77L626.69 313.77C626.69 313.77 635.49 279.16 635.82 271.61Z" fill="#BDD4FF" fill-opacity="1.000000" fill-rule="evenodd"/>
	<path id="Vector" d="M612.38 312.28C612.38 312.28 599.06 296.02 590.91 295.79C582.76 295.55 577.12 282.6 580.99 277.94C576.98 271.84 557.74 274.26 559.37 263.18C560.96 252.14 572.84 245.24 582.76 252.74C590.63 250.32 588.39 236.07 595.52 237.04C602.65 238.02 605.07 249.85 603.91 256.61C614.95 258.7 622.49 273.43 621.38 287.07M611.61 312.88L611.61 312.91C611.97 313.34 612.59 313.4 613.02 313.05C613.45 312.69 613.51 312.07 613.16 311.64L613.13 311.64L611.61 312.88ZM620.4 286.97L620.38 286.99C620.33 287.55 620.74 288.03 621.29 288.07C621.85 288.12 622.33 287.71 622.37 287.16L622.35 287.13L620.4 286.97Z" fill="#FBFBFB" fill-opacity="1.000000" fill-rule="nonzero"/>
	<path id="Vector" d="M612.38 312.28C612.38 312.28 599.06 296.02 590.91 295.79C582.76 295.55 577.12 282.6 580.99 277.94C576.98 271.84 557.74 274.26 559.37 263.18C560.96 252.14 572.84 245.24 582.76 252.74C590.63 250.32 588.39 236.07 595.52 237.04C602.65 238.02 605.07 249.85 603.91 256.61C614.95 258.7 622.49 273.43 621.38 287.07" stroke="#2D2D34" stroke-opacity="1.000000" stroke-width="2.000000" stroke-linejoin="round" stroke-linecap="round"/>
	<path id="Vector" d="M646.76 300.96C646.76 300.96 647 299.05 644.11 292.29C641.22 285.54 646.39 278.22 654.87 279.9C655.61 274.5 661.9 272.31 667.07 274.59C672.24 276.87 670.8 267 680.07 267.6C689.34 268.21 688.22 280.46 684.26 286.24C691.25 283.95 691.58 288.75 691.58 288.75C693.72 302.35 680.86 304.96 670.05 300.54C659.25 296.11 651.19 310.88 651.19 310.88L640.71 310.13L646.76 300.96Z" fill="#BDD4FF" fill-opacity="1.000000" fill-rule="evenodd"/>
	<path id="Vector" d="M617.04 310.92C617.18 307.29 620.26 284.98 607.91 285.49C602.6 285.96 603.91 293.04 603.91 293.04C603.91 293.04 604.05 282.79 598.59 284.37C593.15 285.96 593.7 291.5 596.87 295.79C586.58 303.1 595.47 304.54 595.47 304.54L602.74 311.58L617.04 310.92Z" fill="#BDD4FF" fill-opacity="1.000000" fill-rule="evenodd"/>
	<path id="Vector" d="M656.27 321.64L655.24 323.88L650.58 323.88C650.96 323.13 651.28 322.38 651.65 321.64L656.27 321.64Z" fill="#2D2D34" fill-opacity="1.000000" fill-rule="evenodd"/>
	<path id="Vector" d="M597.52 321.64L651.65 321.64C651.33 322.38 650.96 323.13 650.58 323.88L598.74 323.88L597.52 321.64Z" fill="#FBFBFB" fill-opacity="1.000000" fill-rule="nonzero"/>
	<path id="Vector" d="M651.65 321.64C651.33 322.38 650.96 323.13 650.58 323.88L598.74 323.88L597.52 321.64L651.65 321.64Z" stroke="#2D2D34" stroke-opacity="1.000000" stroke-width="2.000000" stroke-linejoin="round"/>
	<path id="Vector" d="M646.3 346.1C646.3 346.1 657.29 349.54 642.66 350.89C628.04 352.25 606.51 350.29 606.51 350.29C606.51 350.29 601.62 347.77 607.12 347.26C612.66 346.75 639.22 345.16 646.72 346.1L646.3 346.1Z" fill="#2D2D34" fill-opacity="1.000000" fill-rule="evenodd"/>
	<path id="Vector" d="M598.78 323.88L613.04 349.54L643.55 349.54L655.24 323.88L598.78 323.88Z" fill="#FBFBFB" fill-opacity="1.000000" fill-rule="nonzero"/>
	<path id="Vector" d="M613.04 349.54L643.55 349.54L655.24 323.88L598.78 323.88L613.04 349.54Z" stroke="#2D2D34" stroke-opacity="1.000000" stroke-width="2.000000" stroke-linejoin="round"/>
	<path id="Vector" d="M592.4 308.88L661.53 308.88L661.53 321.69L592.4 321.69L592.4 308.88Z" fill="#FBFBFB" fill-opacity="1.000000" fill-rule="nonzero"/>
	<path id="Vector" d="M592.4 308.88L592.4 321.69L661.53 321.69L661.53 308.88L592.4 308.88Z" stroke="#2D2D34" stroke-opacity="1.000000" stroke-width="2.000000" stroke-linejoin="round"/>
	<path id="Vector" d="M305.4 315.49C305.4 314.65 270.28 241.56 270.28 241.56L148.55 241.56L192.16 315.49L305.4 315.49Z" fill="#FBFBFB" fill-opacity="1.000000" fill-rule="nonzero"/>
	<path id="Vector" d="M270.28 241.56L148.55 241.56L192.16 315.49L305.4 315.49C305.4 314.65 270.28 241.56 270.28 241.56Z" stroke="#2D2D34" stroke-opacity="1.000000" stroke-width="2.000000" stroke-linejoin="round"/>
	<path id="Vector" d="M279.03 242.91L270.23 241.56L305.4 315.49L316.35 315.49L279.03 242.91Z" fill="#2D2D34" fill-opacity="1.000000" fill-rule="evenodd"/>
	<path id="Vector" d="M383.8 333.61L192.06 333.61L192.06 336.31L383.8 336.31L383.8 333.61Z" fill="#2D2D34" fill-opacity="1.000000" fill-rule="evenodd"/>
	<path id="Vector" d="M215.45 277.52C215.45 281.79 218.91 285.26 223.18 285.26C227.45 285.26 230.91 281.79 230.91 277.52C230.91 273.25 227.45 269.79 223.18 269.79C218.91 269.79 215.45 273.25 215.45 277.52Z" fill="#2D2D34" fill-opacity="1.000000" fill-rule="evenodd"/>
	<path id="Vector" d="M335.31 182.54C335.31 182.54 328.32 194.28 328.69 217.2" stroke="#2D2D34" stroke-opacity="1.000000" stroke-width="2.000000" stroke-linejoin="round" stroke-linecap="round"/>
	<path id="Vector" d="M152.7 151.75C152.7 151.75 155.03 162.23 140.26 165.68C125.49 169.17 121.67 163.25 121.49 161.67C121.3 160.09 122.23 152.22 134.11 149.47C145.94 146.77 151.35 146.72 152.7 151.75Z" fill="#2D2D34" fill-opacity="1.000000" fill-rule="evenodd"/>
	<path id="Vector" d="M148.51 155.52C148.51 155.52 150.88 135.07 142.59 131.49C134.3 127.9 115.76 133.39 108.77 128.13C101.78 122.87 88.09 106.84 80.31 109.36C72.53 111.87 89.58 125.34 93.4 132.32C97.17 139.31 102.48 151.33 110.49 152.17C118.51 153.01 125.45 159.34 127.36 163.95C138.21 166.8 149.58 160.23 148.51 155.52Z" fill="#FBFBFB" fill-opacity="1.000000" fill-rule="nonzero"/>
	<path id="Vector" d="M142.59 131.49C134.3 127.9 115.76 133.39 108.77 128.13C101.78 122.87 88.09 106.84 80.31 109.36C72.53 111.87 89.58 125.34 93.4 132.32C97.17 139.31 102.48 151.33 110.49 152.17C118.51 153.01 125.45 159.34 127.36 163.95C138.21 166.8 149.58 160.23 148.51 155.52C148.51 155.52 150.88 135.07 142.59 131.49L142.59 131.49Z" stroke="#2D2D34" stroke-opacity="1.000000" stroke-width="2.000000" stroke-linejoin="round"/>
	<path id="Vector" d="M69.5 336.13L106.02 336.13C109.24 336.13 111.89 333.52 111.89 330.26C111.89 327.04 109.28 324.39 106.02 324.39L69.5 324.39C66.29 324.39 63.63 327 63.63 330.26C63.63 333.52 66.24 336.13 69.5 336.13Z" fill="#2D2D34" fill-opacity="1.000000" fill-rule="evenodd"/>
	<path id="Vector" d="M66.05 298.02L66.05 309.57C66.05 313.44 67.08 317.03 68.8 320.15C69.87 322.1 71.27 323.83 72.9 325.37C76.77 329 81.99 331.24 87.76 331.24C99.73 331.24 109.42 321.54 109.42 309.57L109.42 298.02L66.05 298.02Z" fill="#FBFBFB" fill-opacity="1.000000" fill-rule="nonzero"/>
	<path id="Vector" d="M66.05 309.57C66.05 313.44 67.08 317.03 68.8 320.15C69.87 322.1 71.27 323.83 72.9 325.37C76.77 329 81.99 331.24 87.76 331.24C99.73 331.24 109.42 321.54 109.42 309.57L109.42 298.02L66.05 298.02L66.05 309.57Z" stroke="#2D2D34" stroke-opacity="1.000000" stroke-width="2.000000" stroke-linejoin="round"/>
	<path id="Vector" d="M54.97 301.61C55.48 301.1 56.18 300.82 56.88 300.86C56.88 300.86 57.34 300.86 58.13 300.86C59.81 300.91 62.98 300.96 66.05 300.96L66.05 306.27C63.68 306.22 61.26 306.22 59.49 306.17L59.49 318.89C61.12 319.4 64.14 320.1 68.8 320.15C69.87 322.1 71.27 323.83 72.9 325.37C71.64 325.46 70.48 325.46 69.36 325.46C60.32 325.46 55.94 323.27 55.62 323.04C54.78 322.57 54.22 321.69 54.22 320.71L54.22 303.47C54.17 302.77 54.5 302.12 54.97 301.61Z" fill="#FBFBFB" fill-opacity="1.000000" fill-rule="nonzero"/>
	<path id="Vector" d="M56.88 300.86C56.88 300.86 57.34 300.86 58.13 300.86C59.81 300.91 62.98 300.96 66.05 300.96L66.05 306.27C63.68 306.22 61.26 306.22 59.49 306.17L59.49 318.89C61.12 319.4 64.14 320.1 68.8 320.15C69.87 322.1 71.27 323.83 72.9 325.37C71.64 325.46 70.48 325.46 69.36 325.46C60.32 325.46 55.94 323.27 55.62 323.04C54.78 322.57 54.22 321.69 54.22 320.71L54.22 303.47C54.17 302.77 54.5 302.12 54.97 301.61C55.48 301.1 56.18 300.82 56.88 300.86L56.88 300.86Z" stroke="#2D2D34" stroke-opacity="1.000000" stroke-width="2.000000" stroke-linejoin="round"/>
	<path id="Vector" d="M513.35 336.31C513.35 336.31 554.53 342.65 511.67 342.32C468.81 342 383.85 337.9 383.85 337.9L383.85 335.57L513.35 336.31Z" fill="#2D2D34" fill-opacity="1.000000" fill-rule="evenodd"/>
	<path id="Vector" d="M155.61 78.57L155.61 63.2L1 63.2L1 78.57L155.61 78.57Z" stroke="#2D2D34" stroke-opacity="1.000000" stroke-width="2.000000" stroke-linejoin="round"/>
	<path id="Vector" d="M25.73 63.24L6.35 63.24L6.35 2.44L25.73 2.44L25.73 63.24Z" fill="#FBFBFB" fill-opacity="1.000000" fill-rule="nonzero"/>
	<path id="Vector" d="M25.73 63.24L25.73 2.44L6.35 2.44L6.35 63.24L25.73 63.24Z" stroke="#2D2D34" stroke-opacity="1.000000" stroke-width="2.000000" stroke-linejoin="round"/>
	<path id="Vector" d="M37.04 63.24L56.42 63.24L56.42 2.44L37.04 2.44L37.04 63.24Z" fill="#BDD4FF" fill-opacity="1.000000" fill-rule="evenodd"/>
	<path id="Vector" d="M68.59 63.24L87.97 63.24L87.97 38.13L68.59 38.13L68.59 63.24Z" fill="#2D2D34" fill-opacity="1.000000" fill-rule="evenodd"/>
	<path id="Vector" d="M95.63 63.24L115.01 63.24L115.01 38.13L95.63 38.13L95.63 63.24Z" fill="#2D2D34" fill-opacity="1.000000" fill-rule="evenodd"/>
	<path id="Vector" d="M69.17 269.79C78.02 269.79 85.2 262.62 85.2 253.77C85.2 244.92 78.02 237.74 69.17 237.74C60.32 237.74 53.15 244.92 53.15 253.77C53.15 262.62 60.32 269.79 69.17 269.79L69.17 269.79Z" stroke="#2D2D34" stroke-opacity="1.000000" stroke-width="2.000000" stroke-linejoin="round"/>
	<path id="Vector" d="M87.76 223.21C87.76 226.84 90.7 229.78 94.33 229.78C97.96 229.78 100.9 226.84 100.9 223.21C100.9 219.58 97.96 216.64 94.33 216.64C90.7 216.64 87.76 219.58 87.76 223.21Z" fill="#2D2D34" fill-opacity="1.000000" fill-rule="evenodd"/>
	<path id="Vector" d="M63.54 207.74C65.47 207.74 67.03 206.18 67.03 204.25C67.03 202.32 65.47 200.76 63.54 200.76C61.61 200.76 60.04 202.32 60.04 204.25C60.04 206.18 61.61 207.74 63.54 207.74L63.54 207.74Z" stroke="#2D2D34" stroke-opacity="1.000000" stroke-width="2.000000" stroke-linejoin="round"/>
	<path id="Vector" d="M352.64 220.83C350.96 256.05 359.3 261.92 359.3 261.92L385.85 261.92C385.85 261.92 392.98 244.45 391.81 224.56C391.81 224.56 361.91 223.49 352.64 220.83L352.64 220.83Z" stroke="#2D2D34" stroke-opacity="1.000000" stroke-width="2.000000" stroke-linejoin="round"/>
	<path id="Vector" d="M387.76 232.81L391.81 224.56L352.64 220.83L357.01 229.82L387.76 232.81Z" fill="#FBFBFB" fill-opacity="1.000000" fill-rule="nonzero"/>
	<path id="Vector" d="M391.81 224.56L352.64 220.83L357.01 229.82L387.76 232.81L391.81 224.56Z" stroke="#2D2D34" stroke-opacity="1.000000" stroke-width="2.000000" stroke-linejoin="round"/>
	<path id="Vector" d="M385.66 149.23C385.66 149.23 389.81 125.52 365.77 133.16C362.84 134.09 369.78 137.08 368.38 141.17C366.98 145.23 352.17 164.61 347 166.38C340.24 169.73 353.33 176.72 365.21 172.57C377.09 168.43 388.27 154.68 385.66 149.23Z" fill="#74A3FF" fill-opacity="1.000000" fill-rule="nonzero"/>
	<path id="Vector" d="M365.77 133.16C362.84 134.09 369.78 137.08 368.38 141.17C366.98 145.23 352.17 164.61 347 166.38C340.24 169.73 353.33 176.72 365.21 172.57C377.09 168.43 388.27 154.68 385.66 149.23C385.66 149.23 389.81 125.52 365.77 133.16L365.77 133.16Z" stroke="#2D2D34" stroke-opacity="1.000000" stroke-width="2.000000" stroke-linejoin="round"/>
	<path id="Vector" d="M332 169.54C330.37 159.81 319.37 166.24 314.81 155.85C311.97 149.33 311.22 144.02 310.94 139.13C310.85 137.36 306.75 140.01 304 141.5C296.73 145.55 298.6 161.62 303.58 165.96C308.57 170.29 333.68 179.28 332 169.54Z" fill="#74A3FF" fill-opacity="1.000000" fill-rule="nonzero"/>
	<path id="Vector" d="M314.81 155.85C311.97 149.33 311.22 144.02 310.94 139.13C310.85 137.36 306.75 140.01 304 141.5C296.73 145.55 298.6 161.62 303.58 165.96C308.57 170.29 333.68 179.28 332 169.54C330.37 159.81 319.37 166.24 314.81 155.85L314.81 155.85Z" stroke="#2D2D34" stroke-opacity="1.000000" stroke-width="2.000000" stroke-linejoin="round"/>
	<path id="Vector" d="M160.34 159.76C160.34 159.76 154.24 178.12 132.02 173.6" stroke="#2D2D34" stroke-opacity="1.000000" stroke-width="3.000000" stroke-linejoin="round" stroke-dasharray="12 12"/>
</svg>
